<?xml version="1.0" encoding="UTF-8"?>
<svg id="_レイヤー_2" data-name="レイヤー 2" xmlns="http://www.w3.org/2000/svg" xmlns:xlink="http://www.w3.org/1999/xlink" viewBox="0 0 258.29 45.22">
  <defs>
    <style>
      .cls-1 {
        fill: #1c3c24;
      }

      .cls-2 {
        fill: url(#_名称未設定グラデーション_14);
      }
    </style>
    <linearGradient id="_名称未設定グラデーション_14" data-name="名称未設定グラデーション 14" x1="7.61" y1="37.2" x2="49.18" y2="-.23" gradientUnits="userSpaceOnUse">
      <stop offset="0" stop-color="#023b36"/>
      <stop offset="1" stop-color="#57beb2"/>
    </linearGradient>
  </defs>
  <g id="_レイヤー_1-2" data-name="レイヤー 1">
    <g>
      <path class="cls-2" d="M39.41,4.15c-4.09,1.08-7.31,2.81-10.57,5.33-1.09.84-1.98,1.81-2.81,2.88-.71.91-1.46,1.78-2,2.79-1.8,3.34-2.4,4.86-3.15,8.64l-.32,1.6-.92,3.84c.49.11.86-.1,1.3-.25,2.97-.96,6.82-2.87,9.19-4.79l1.14-.92c.99-.8,1.85-1.72,2.71-2.69,1.49-1.69,2.66-3.66,3.53-5.74.45-1.07.67-2.82,2.08-2.46,1.91.49.39,3.11-.59,5.18-.66,1.4-1.51,2.62-2.48,3.82-.63.78-1.23,1.58-1.96,2.27l-2.03,1.92c-1.9,1.79-5.96,4.04-8.5,5.01l-2.45.94c-1.74.67-3.46,1.07-5.31,1.26l-2.13.22-1.46.03c-4.27.09-8.43-1.49-10.91-5.02C.23,25.81-.3,23.42.16,20.72c.53-3.04,2.77-5.65,5.44-7.23.99-.58,2.11-1.07,3.3-1.18.53-.05,1.21-.06,1.66-.24,1.14-2.4,2.26-4.39,4.35-6.04,2.81-2.22,6.36-3.57,9.96-3.33,2.18.14,4.21.56,6.16,1.61.68.36,1.44-.08,2.05-.36,1.38-.64,2.76-1.09,4.2-1.53l2.57-.77,2.33-.58c1.85-.46,3.7-.7,5.61-.85l2.67-.22c.73-.06,1.64.15,1.82,1l.29,1.4.19,3.64v2.87s-.18,2.22-.18,2.22l-.29,1.52-.3,1.94-.33,1.52-.57,2.08-.47,1.39c-.52,1.55-1.12,3.07-1.97,4.45l-1.94,3.16c-.46.75-1.06,1.35-1.64,2.01-3.08,3.51-8.79,6.42-13.33,7.09l-1.54.23-3.32.32c-1,.1-1.99.03-3,0-4.34-.14-8.86-.5-12.4,2.19-1.44,1.1-2.32,2.85-2.52,4.58-.1.9-.35,1.59-1.3,1.62-.82.02-1.49-.68-1.39-1.62.21-2.03.94-4.03,2.36-5.49,3.78-3.88,9.65-4.29,14.86-3.78,1.01.1,1.91.08,2.92-.02l2.17-.22,2.07-.24c1.2-.14,2.32-.52,3.5-.84,1.83-.49,3.47-1.37,5.13-2.31.97-.55,1.78-1.3,2.64-2.01,1.5-1.25,3.28-3.57,4.18-5.31l1.18-2.31c1.53-2.98,2.33-6.08,2.86-9.37.22-1.36.32-2.67.34-4.08l.03-2.02-.05-1.34c-.02-.58-.1-1.31-.36-1.79-.8-.19-1.49.07-2.23.12-1.95.13-3.81.34-5.69.83l-2.75.73ZM10.49,30.27c1.49.21,2.91.12,4.4.06.44-.02,1.12-.27,1.58-.41.34-.53.61-1.14.75-1.75l.7-2.91c.19-.78.42-1.6.52-2.38.44-3.41,1.56-6.5,3.53-9.32.62-.89,1.19-1.8,1.89-2.65.9-1.1,1.89-2.21,3.03-3.04l1.71-1.25c.1-.07.32-.28.27-.37l-.17-.36c-1.41-.44-2.73-.74-4.22-.87l-2.72.38c-1.74.41-3.38,1.24-4.83,2.25-1.57,1.09-2.61,2.71-3.42,4.44,1.99.3,3.41,1.19,4.35,2.81l.31,1.37c.19,1.49-.75,2.76-1.94,3.5s-2.38.97-3.71.43c-2.11-.85-2.73-2.95-2.57-5.31-2.03.1-3.71,1.19-5.13,2.5-1.59,1.48-2.18,3.52-2.07,5.71.21,3.97,3.81,6.62,7.74,7.18ZM14.31,17.8c.64-.06,1.05-.59,1.13-.98.09-.42-.05-1.09-.36-1.36-.66-.58-1.47-.74-2.35-.66-.04.7-.09,1.32.03,2,.09.52,1.01,1.06,1.56,1Z"/>
      <g>
        <path class="cls-1" d="M175.01,12.82v20.57c-.5.32-.96.24-1.47.22l-2.36-.06-1.98-2.47-2.2-2.79-5.55-6.96c-.25-.31-.38-.74-.81-.86v3.46s0,2.99,0,2.99v1.35s0,2.06,0,2.06c0,1.1.05,2.09-.07,3.2-.43.17-.77.08-1.19.07l-3.29-.06V12.51s2.63-.03,2.63-.03l1.28.05,1.65,2.02,3.45,4.31,2.25,2.84,1.56,1.88,1.53,2.01c.26-.98.06-1.72.07-2.57l.03-1.92.02-1.95v-2.89s0-1.96,0-1.96l-.02-1.85,2.04.04,1.74-.02c.22,0,.68-.15.68.35Z"/>
        <path class="cls-1" d="M147.56,33.54l-.04-1.52-1.39,1.03c-.68.5-1.64.63-2.48.74-2.06.28-3.98-.03-5.76-1.15-.92-.58-1.65-1.41-2.3-2.34-1.49-2.15-1.57-5.33-.82-7.84.18-.6.52-1.2.82-1.71,1.15-1.95,3.01-3.07,5.21-3.44,1.82-.3,3.65-.19,5.27.72l1.23.86v-7.36c.13-.1.42-.25.54-.25l3.72.03c.25,1.1.05,2.09.07,3.18l.03,1.85v2.5s0,2.15,0,2.15v2.5s0,2.16,0,2.16v2.41s.01,2.44.01,2.44l.05,2.61c0,.18-.31.5-.49.5l-2.49-.03-1.19-.06ZM146.7,22.99c-1.01-1.82-2.89-2.4-4.81-1.97-1.29.28-2.08,1.06-2.63,2.19-1.12,2.27-.38,5.75,2.31,6.69,1.71.6,3.51.1,4.67-1.26,1.3-1.52,1.47-3.83.46-5.64Z"/>
        <path class="cls-1" d="M81.81,27.6l1.73,1.66c.3.29.61.49.85.87-1.38,1.72-3.16,3.01-5.27,3.46-2.73.58-5.47.41-8.08-.58l-.94-.49c-.67-.35-1.29-.75-1.82-1.29l-.94-.95c-1.59-1.59-2.34-4-2.63-6.25-.09-.71-.12-1.4,0-2.11l.25-1.53c.23-1.43,1.2-3.35,2.13-4.41,1.28-1.48,2.78-2.49,4.59-3.19,1.23-.48,2.47-.57,3.82-.62l1.39-.05c1.53-.05,4.54.98,5.73,2l.97.83c.28.24.68.53.69,1l-2.01,1.99-.79.62-1.09-.98c-2.32-2.1-6.6-2.14-9.18.4-.81.79-1.38,1.89-1.66,2.96-.69,2.69-.14,5.3,1.84,7.19,1.29,1.24,2.77,1.82,4.57,1.84,1.17.01,2.37-.05,3.36-.8l1.81-1.38.23-.28c.07-.08.4.03.48.1Z"/>
        <path class="cls-1" d="M251.87,30.07c2.23-.57,2.49-1.28,2.82-1.39.1-.03.34.11.42.19l1.81,1.85c.1.1.25.33.23.45-.03.14-.22.35-.35.46l-1.03.85c-1.55,1.04-3.38,1.52-5.23,1.41l-1.57-.09c-2.82-.17-5.48-1.92-6.74-4.42-1.79-3.53-.89-8.21,2.32-10.55,2.27-1.65,5.31-2.03,8.04-1.31,1.15.31,2.08.8,2.97,1.6.57.51,1.14.99,1.51,1.71,1.06,2.04,1.32,3.55,1.19,5.92l-2.34.11-1.95.02c-.96,0-1.85-.02-2.81-.02h-2.24c-1.03,0-1.99-.08-3.01.11.16.61.29,1.19.66,1.59,1.33,1.47,3.43,2,5.31,1.52ZM253.9,23.39l-.46-.93c-.68-1.38-2.31-1.86-3.78-1.77l-1.07.18c-1.48.4-2.58,1.61-2.77,3.18h8.13c.02-.18.01-.52-.05-.65Z"/>
        <path class="cls-1" d="M180.23,32.8c-1.93-1.13-2.7-4.49-.97-6.79.76-1,2.77-1.9,4.18-1.94l2.62-.08,2.77-.04c.22-.07.12-.56.05-.79-.25-.89-.77-1.7-1.67-2-1.33-.45-2.61-.45-3.95-.11-1.83.47-2.41,1.17-2.73,1.17-.1,0-.27-.18-.32-.27l-1.4-2.58c.87-.81,1.81-1.22,2.87-1.54,1.65-.49,3.3-.8,5.02-.61,1.11.12,2.15.25,3.19.72.86.39,1.68.94,2.25,1.72.67.93,1.22,2.09,1.22,3.31l.06,10.46c-.37.27-.73.17-1.14.16l-2.9-.05-.24-1.41c-1.06,1.11-2.19,1.59-3.6,1.68l-1.11.07c-1.54.1-2.91-.33-4.22-1.1ZM188.37,29.43c.62-.66.73-1.59.58-2.48l-1.07-.09h-2.22c-.79,0-1.58.01-2.28.44-.51.31-.76.95-.73,1.54.03.51.35,1.01.82,1.39.52.42,1.28.45,1.96.48,1.14.05,2.1-.41,2.93-1.29Z"/>
        <path class="cls-1" d="M109.59,31.7c-.75.63-1.47,1.18-2.32,1.5-2.79,1.05-6.25.97-8.77-.59s-3.7-3.93-3.82-6.76c-.12-2.63.92-5.08,2.99-6.79,1.15-.95,3.29-1.82,4.83-1.82h1.91c1.85,0,4.46,1.19,5.7,2.63,1.7,1.97,2.51,4.58,2,7.12-.13.65-.24,1.32-.54,1.9-.52,1.03-1.08,2.05-1.99,2.82ZM106.96,28.37c.53-.85.89-1.71.84-2.7-.08-1.33-.31-2.66-1.32-3.6-1.95-1.8-5.31-1.45-6.66.74-.91,1.47-1.03,3.5-.24,5.01.68,1.31,1.75,2.09,3.16,2.26,1.73.21,3.33-.25,4.24-1.7Z"/>
        <path class="cls-1" d="M131.18,25.52v1.85s.04,6.08.04,6.08c-.38.23-.79.15-1.21.14l-2.92-.05-.08-1.59c-.43.07-.64.52-.97.75-2.25,1.56-5.54,1.55-7.85.25s-2.96-3.76-2.95-6.24v-1.13s0-2.07,0-2.07v-2.5s.01-2.06.01-2.06c0-.53-.1-1.02.19-1.53l1.06.05h1.84c.45-.01.8-.14,1.24.08l.03,9.34c0,.4.28,1.01.41,1.36.76,2.1,4.27,2.23,5.48.79.63-.75,1.15-1.59,1.18-2.59l.09-3.04v-2.33s-.02-2.15-.02-2.15l.09-1.39c1.38-.22,2.89-.24,4.28,0l.08,1.39-.02,2.15v2.32s.01,2.1.01,2.1Z"/>
        <path class="cls-1" d="M226.02,17.71v15.72c-.22.22-.61.16-.87.15l-3.12-.03c-.37-.69-.03-1.33-.38-1.55-.98,1.11-2.19,1.58-3.62,1.79-2.09.3-4.35-.09-5.96-1.56-1.43-1.32-1.91-3.3-1.89-5.18l-.07-1.47v-2.15s.02-2.22.02-2.22l.02-2.27.09-1.29c.05-.34.71-.18.97-.19l2.17-.07c.39-.01.87.05,1.09.36l.06,9.35c0,1.2.87,2.21,1.89,2.65,1.69.72,3.63.02,4.58-1.52.62-1,.64-2.15.64-3.29v-1.79s.02-2.03.02-2.03l.08-3.64c.73-.09,1.28.02,1.96.02h1.73c.14-.01.58-.11.58.23Z"/>
        <path class="cls-1" d="M206.76,29.89l.84,2.39c.05.14.1.46.04.59-.07.15-.34.32-.54.41-2.14,1.04-6.08.78-7.56-.82-.81-.88-1.39-2.02-1.4-3.25l-.05-7.5c0-.33-.25-.54-.57-.54l-1.97-.03.08-3.49,2.46-.06v-3.32c0-.2.09-.63.32-.63h4.09s.02,3.77.02,3.77c.46.35,1.03.15,1.56.16l2.48.06c.15,1.13.2,2.3.15,3.5l-1.93.07-2.27.08v7.2c0,.81.69,1.47,1.42,1.69,1.45.45,2.62-.87,2.83-.28Z"/>
        <path class="cls-1" d="M91.6,23.08v1.74s.04,8.19.04,8.19c0,.13-.15.43-.24.56l-4.27-.03V11.99c0-.21.14-.52.25-.68h3.91c.16.15.35.52.34.74l-.06,1.96v2.55s.02,6.53.02,6.53Z"/>
        <path class="cls-1" d="M233.16,33.6l-2.5-.03c-.19,0-.42-.22-.42-.45v-15.28c0-.24.22-.44.42-.44h2.57c.38.01.82.02,1.17.14l.1,1.68.74-.6c1.34-1.08,3.01-1.43,4.75-1.31.14.58.03,1.14.02,1.74l-.03,2.32-1.78.03c-.91.02-1.93.51-2.49,1.23-.29.37-.63.91-.74,1.33-.16.63-.3,1.32-.3,1.96v7.54c-.44.31-.97.15-1.51.14Z"/>
      </g>
    </g>
  </g>
</svg>