<svg xmlns="http://www.w3.org/2000/svg" viewBox="0 0 640 711" fill="none" role="img" aria-label="新潟県の位置を示す日本のドットマップ">
<g fill="#C3CDC4">
<circle cx="65.0" cy="698.2" r="4.4" />
<circle cx="52.0" cy="685.2" r="4.4" />
<circle cx="65.0" cy="685.2" r="4.4" />
<circle cx="78.0" cy="685.2" r="4.4" />
<circle cx="52.0" cy="672.2" r="4.4" />
<circle cx="65.0" cy="672.2" r="4.4" />
<circle cx="78.0" cy="672.2" r="4.4" />
<circle cx="52.0" cy="659.2" r="4.4" />
<circle cx="65.0" cy="659.2" r="4.4" />
<circle cx="78.0" cy="659.2" r="4.4" />
<circle cx="91.0" cy="659.2" r="4.4" />
<circle cx="65.0" cy="646.2" r="4.4" />
<circle cx="78.0" cy="646.2" r="4.4" />
<circle cx="91.0" cy="646.2" r="4.4" />
<circle cx="52.0" cy="633.2" r="4.4" />
<circle cx="65.0" cy="633.2" r="4.4" />
<circle cx="78.0" cy="633.2" r="4.4" />
<circle cx="91.0" cy="633.2" r="4.4" />
<circle cx="39.0" cy="620.2" r="4.4" />
<circle cx="52.0" cy="620.2" r="4.4" />
<circle cx="65.0" cy="620.2" r="4.4" />
<circle cx="78.0" cy="620.2" r="4.4" />
<circle cx="91.0" cy="620.2" r="4.4" />
<circle cx="104.0" cy="620.2" r="4.4" />
<circle cx="26.0" cy="607.2" r="4.4" />
<circle cx="39.0" cy="607.2" r="4.4" />
<circle cx="52.0" cy="607.2" r="4.4" />
<circle cx="65.0" cy="607.2" r="4.4" />
<circle cx="78.0" cy="607.2" r="4.4" />
<circle cx="91.0" cy="607.2" r="4.4" />
<circle cx="104.0" cy="607.2" r="4.4" />
<circle cx="130.0" cy="607.2" r="4.4" />
<circle cx="143.0" cy="607.2" r="4.4" />
<circle cx="26.0" cy="594.2" r="4.4" />
<circle cx="39.0" cy="594.2" r="4.4" />
<circle cx="52.0" cy="594.2" r="4.4" />
<circle cx="65.0" cy="594.2" r="4.4" />
<circle cx="78.0" cy="594.2" r="4.4" />
<circle cx="91.0" cy="594.2" r="4.4" />
<circle cx="104.0" cy="594.2" r="4.4" />
<circle cx="130.0" cy="594.2" r="4.4" />
<circle cx="143.0" cy="594.2" r="4.4" />
<circle cx="156.0" cy="594.2" r="4.4" />
<circle cx="195.0" cy="594.2" r="4.4" />
<circle cx="52.0" cy="581.2" r="4.4" />
<circle cx="65.0" cy="581.2" r="4.4" />
<circle cx="78.0" cy="581.2" r="4.4" />
<circle cx="91.0" cy="581.2" r="4.4" />
<circle cx="130.0" cy="581.2" r="4.4" />
<circle cx="143.0" cy="581.2" r="4.4" />
<circle cx="156.0" cy="581.2" r="4.4" />
<circle cx="169.0" cy="581.2" r="4.4" />
<circle cx="182.0" cy="581.2" r="4.4" />
<circle cx="195.0" cy="581.2" r="4.4" />
<circle cx="65.0" cy="568.2" r="4.4" />
<circle cx="143.0" cy="568.2" r="4.4" />
<circle cx="156.0" cy="568.2" r="4.4" />
<circle cx="169.0" cy="568.2" r="4.4" />
<circle cx="182.0" cy="568.2" r="4.4" />
<circle cx="195.0" cy="568.2" r="4.4" />
<circle cx="208.0" cy="568.2" r="4.4" />
<circle cx="234.0" cy="568.2" r="4.4" />
<circle cx="247.0" cy="568.2" r="4.4" />
<circle cx="260.0" cy="568.2" r="4.4" />
<circle cx="78.0" cy="555.2" r="4.4" />
<circle cx="91.0" cy="555.2" r="4.4" />
<circle cx="104.0" cy="555.2" r="4.4" />
<circle cx="117.0" cy="555.2" r="4.4" />
<circle cx="130.0" cy="555.2" r="4.4" />
<circle cx="182.0" cy="555.2" r="4.4" />
<circle cx="195.0" cy="555.2" r="4.4" />
<circle cx="208.0" cy="555.2" r="4.4" />
<circle cx="234.0" cy="555.2" r="4.4" />
<circle cx="247.0" cy="555.2" r="4.4" />
<circle cx="260.0" cy="555.2" r="4.4" />
<circle cx="273.0" cy="555.2" r="4.4" />
<circle cx="91.0" cy="542.2" r="4.4" />
<circle cx="104.0" cy="542.2" r="4.4" />
<circle cx="117.0" cy="542.2" r="4.4" />
<circle cx="130.0" cy="542.2" r="4.4" />
<circle cx="143.0" cy="542.2" r="4.4" />
<circle cx="156.0" cy="542.2" r="4.4" />
<circle cx="234.0" cy="542.2" r="4.4" />
<circle cx="247.0" cy="542.2" r="4.4" />
<circle cx="260.0" cy="542.2" r="4.4" />
<circle cx="273.0" cy="542.2" r="4.4" />
<circle cx="286.0" cy="542.2" r="4.4" />
<circle cx="104.0" cy="529.2" r="4.4" />
<circle cx="117.0" cy="529.2" r="4.4" />
<circle cx="130.0" cy="529.2" r="4.4" />
<circle cx="143.0" cy="529.2" r="4.4" />
<circle cx="156.0" cy="529.2" r="4.4" />
<circle cx="169.0" cy="529.2" r="4.4" />
<circle cx="182.0" cy="529.2" r="4.4" />
<circle cx="195.0" cy="529.2" r="4.4" />
<circle cx="208.0" cy="529.2" r="4.4" />
<circle cx="221.0" cy="529.2" r="4.4" />
<circle cx="234.0" cy="529.2" r="4.4" />
<circle cx="247.0" cy="529.2" r="4.4" />
<circle cx="260.0" cy="529.2" r="4.4" />
<circle cx="273.0" cy="529.2" r="4.4" />
<circle cx="286.0" cy="529.2" r="4.4" />
<circle cx="299.0" cy="529.2" r="4.4" />
<circle cx="312.0" cy="529.2" r="4.4" />
<circle cx="325.0" cy="529.2" r="4.4" />
<circle cx="338.0" cy="529.2" r="4.4" />
<circle cx="117.0" cy="516.2" r="4.4" />
<circle cx="130.0" cy="516.2" r="4.4" />
<circle cx="143.0" cy="516.2" r="4.4" />
<circle cx="156.0" cy="516.2" r="4.4" />
<circle cx="169.0" cy="516.2" r="4.4" />
<circle cx="182.0" cy="516.2" r="4.4" />
<circle cx="195.0" cy="516.2" r="4.4" />
<circle cx="208.0" cy="516.2" r="4.4" />
<circle cx="221.0" cy="516.2" r="4.4" />
<circle cx="234.0" cy="516.2" r="4.4" />
<circle cx="247.0" cy="516.2" r="4.4" />
<circle cx="260.0" cy="516.2" r="4.4" />
<circle cx="273.0" cy="516.2" r="4.4" />
<circle cx="286.0" cy="516.2" r="4.4" />
<circle cx="299.0" cy="516.2" r="4.4" />
<circle cx="312.0" cy="516.2" r="4.4" />
<circle cx="325.0" cy="516.2" r="4.4" />
<circle cx="338.0" cy="516.2" r="4.4" />
<circle cx="351.0" cy="516.2" r="4.4" />
<circle cx="364.0" cy="516.2" r="4.4" />
<circle cx="377.0" cy="516.2" r="4.4" />
<circle cx="390.0" cy="516.2" r="4.4" />
<circle cx="130.0" cy="503.2" r="4.4" />
<circle cx="143.0" cy="503.2" r="4.4" />
<circle cx="156.0" cy="503.2" r="4.4" />
<circle cx="169.0" cy="503.2" r="4.4" />
<circle cx="182.0" cy="503.2" r="4.4" />
<circle cx="195.0" cy="503.2" r="4.4" />
<circle cx="208.0" cy="503.2" r="4.4" />
<circle cx="221.0" cy="503.2" r="4.4" />
<circle cx="234.0" cy="503.2" r="4.4" />
<circle cx="247.0" cy="503.2" r="4.4" />
<circle cx="260.0" cy="503.2" r="4.4" />
<circle cx="273.0" cy="503.2" r="4.4" />
<circle cx="286.0" cy="503.2" r="4.4" />
<circle cx="299.0" cy="503.2" r="4.4" />
<circle cx="312.0" cy="503.2" r="4.4" />
<circle cx="325.0" cy="503.2" r="4.4" />
<circle cx="338.0" cy="503.2" r="4.4" />
<circle cx="351.0" cy="503.2" r="4.4" />
<circle cx="364.0" cy="503.2" r="4.4" />
<circle cx="377.0" cy="503.2" r="4.4" />
<circle cx="390.0" cy="503.2" r="4.4" />
<circle cx="403.0" cy="503.2" r="4.4" />
<circle cx="416.0" cy="503.2" r="4.4" />
<circle cx="143.0" cy="490.2" r="4.4" />
<circle cx="156.0" cy="490.2" r="4.4" />
<circle cx="169.0" cy="490.2" r="4.4" />
<circle cx="182.0" cy="490.2" r="4.4" />
<circle cx="195.0" cy="490.2" r="4.4" />
<circle cx="208.0" cy="490.2" r="4.4" />
<circle cx="221.0" cy="490.2" r="4.4" />
<circle cx="234.0" cy="490.2" r="4.4" />
<circle cx="247.0" cy="490.2" r="4.4" />
<circle cx="260.0" cy="490.2" r="4.4" />
<circle cx="273.0" cy="490.2" r="4.4" />
<circle cx="286.0" cy="490.2" r="4.4" />
<circle cx="299.0" cy="490.2" r="4.4" />
<circle cx="312.0" cy="490.2" r="4.4" />
<circle cx="325.0" cy="490.2" r="4.4" />
<circle cx="338.0" cy="490.2" r="4.4" />
<circle cx="351.0" cy="490.2" r="4.4" />
<circle cx="364.0" cy="490.2" r="4.4" />
<circle cx="377.0" cy="490.2" r="4.4" />
<circle cx="390.0" cy="490.2" r="4.4" />
<circle cx="403.0" cy="490.2" r="4.4" />
<circle cx="416.0" cy="490.2" r="4.4" />
<circle cx="260.0" cy="477.2" r="4.4" />
<circle cx="273.0" cy="477.2" r="4.4" />
<circle cx="286.0" cy="477.2" r="4.4" />
<circle cx="299.0" cy="477.2" r="4.4" />
<circle cx="312.0" cy="477.2" r="4.4" />
<circle cx="325.0" cy="477.2" r="4.4" />
<circle cx="338.0" cy="477.2" r="4.4" />
<circle cx="351.0" cy="477.2" r="4.4" />
<circle cx="364.0" cy="477.2" r="4.4" />
<circle cx="377.0" cy="477.2" r="4.4" />
<circle cx="390.0" cy="477.2" r="4.4" />
<circle cx="403.0" cy="477.2" r="4.4" />
<circle cx="416.0" cy="477.2" r="4.4" />
<circle cx="429.0" cy="477.2" r="4.4" />
<circle cx="260.0" cy="464.2" r="4.4" />
<circle cx="273.0" cy="464.2" r="4.4" />
<circle cx="286.0" cy="464.2" r="4.4" />
<circle cx="299.0" cy="464.2" r="4.4" />
<circle cx="312.0" cy="464.2" r="4.4" />
<circle cx="325.0" cy="464.2" r="4.4" />
<circle cx="338.0" cy="464.2" r="4.4" />
<circle cx="351.0" cy="464.2" r="4.4" />
<circle cx="364.0" cy="464.2" r="4.4" />
<circle cx="377.0" cy="464.2" r="4.4" />
<circle cx="390.0" cy="464.2" r="4.4" />
<circle cx="403.0" cy="464.2" r="4.4" />
<circle cx="416.0" cy="464.2" r="4.4" />
<circle cx="429.0" cy="464.2" r="4.4" />
<circle cx="273.0" cy="451.2" r="4.4" />
<circle cx="286.0" cy="451.2" r="4.4" />
<circle cx="299.0" cy="451.2" r="4.4" />
<circle cx="312.0" cy="451.2" r="4.4" />
<circle cx="325.0" cy="451.2" r="4.4" />
<circle cx="338.0" cy="451.2" r="4.4" />
<circle cx="351.0" cy="451.2" r="4.4" />
<circle cx="364.0" cy="451.2" r="4.4" />
<circle cx="377.0" cy="451.2" r="4.4" />
<circle cx="390.0" cy="451.2" r="4.4" />
<circle cx="403.0" cy="451.2" r="4.4" />
<circle cx="416.0" cy="451.2" r="4.4" />
<circle cx="429.0" cy="451.2" r="4.4" />
<circle cx="273.0" cy="438.2" r="4.4" />
<circle cx="286.0" cy="438.2" r="4.4" />
<circle cx="299.0" cy="438.2" r="4.4" />
<circle cx="312.0" cy="438.2" r="4.4" />
<circle cx="325.0" cy="438.2" r="4.4" />
<circle cx="338.0" cy="438.2" r="4.4" />
<circle cx="351.0" cy="438.2" r="4.4" />
<circle cx="364.0" cy="438.2" r="4.4" />
<circle cx="377.0" cy="438.2" r="4.4" />
<circle cx="390.0" cy="438.2" r="4.4" />
<circle cx="403.0" cy="438.2" r="4.4" />
<circle cx="416.0" cy="438.2" r="4.4" />
<circle cx="429.0" cy="438.2" r="4.4" />
<circle cx="286.0" cy="425.2" r="4.4" />
<circle cx="299.0" cy="425.2" r="4.4" />
<circle cx="325.0" cy="425.2" r="4.4" />
<circle cx="338.0" cy="425.2" r="4.4" />
<circle cx="351.0" cy="425.2" r="4.4" />
<circle cx="364.0" cy="425.2" r="4.4" />
<circle cx="377.0" cy="425.2" r="4.4" />
<circle cx="390.0" cy="425.2" r="4.4" />
<circle cx="403.0" cy="425.2" r="4.4" />
<circle cx="416.0" cy="425.2" r="4.4" />
<circle cx="429.0" cy="425.2" r="4.4" />
<circle cx="286.0" cy="412.2" r="4.4" />
<circle cx="338.0" cy="412.2" r="4.4" />
<circle cx="351.0" cy="412.2" r="4.4" />
<circle cx="364.0" cy="412.2" r="4.4" />
<circle cx="377.0" cy="412.2" r="4.4" />
<circle cx="390.0" cy="412.2" r="4.4" />
<circle cx="403.0" cy="412.2" r="4.4" />
<circle cx="416.0" cy="412.2" r="4.4" />
<circle cx="429.0" cy="412.2" r="4.4" />
<circle cx="442.0" cy="412.2" r="4.4" />
<circle cx="351.0" cy="399.2" r="4.4" />
<circle cx="364.0" cy="399.2" r="4.4" />
<circle cx="377.0" cy="399.2" r="4.4" />
<circle cx="390.0" cy="399.2" r="4.4" />
<circle cx="403.0" cy="399.2" r="4.4" />
<circle cx="416.0" cy="399.2" r="4.4" />
<circle cx="429.0" cy="399.2" r="4.4" />
<circle cx="442.0" cy="399.2" r="4.4" />
<circle cx="364.0" cy="386.2" r="4.4" />
<circle cx="377.0" cy="386.2" r="4.4" />
<circle cx="390.0" cy="386.2" r="4.4" />
<circle cx="403.0" cy="386.2" r="4.4" />
<circle cx="416.0" cy="386.2" r="4.4" />
<circle cx="429.0" cy="386.2" r="4.4" />
<circle cx="442.0" cy="386.2" r="4.4" />
<circle cx="377.0" cy="373.2" r="4.4" />
<circle cx="390.0" cy="373.2" r="4.4" />
<circle cx="403.0" cy="373.2" r="4.4" />
<circle cx="416.0" cy="373.2" r="4.4" />
<circle cx="429.0" cy="373.2" r="4.4" />
<circle cx="442.0" cy="373.2" r="4.4" />
<circle cx="390.0" cy="360.2" r="4.4" />
<circle cx="403.0" cy="360.2" r="4.4" />
<circle cx="416.0" cy="360.2" r="4.4" />
<circle cx="429.0" cy="360.2" r="4.4" />
<circle cx="442.0" cy="360.2" r="4.4" />
<circle cx="403.0" cy="347.2" r="4.4" />
<circle cx="416.0" cy="347.2" r="4.4" />
<circle cx="429.0" cy="347.2" r="4.4" />
<circle cx="442.0" cy="347.2" r="4.4" />
<circle cx="455.0" cy="347.2" r="4.4" />
<circle cx="403.0" cy="334.2" r="4.4" />
<circle cx="416.0" cy="334.2" r="4.4" />
<circle cx="429.0" cy="334.2" r="4.4" />
<circle cx="442.0" cy="334.2" r="4.4" />
<circle cx="455.0" cy="334.2" r="4.4" />
<circle cx="416.0" cy="321.2" r="4.4" />
<circle cx="429.0" cy="321.2" r="4.4" />
<circle cx="442.0" cy="321.2" r="4.4" />
<circle cx="455.0" cy="321.2" r="4.4" />
<circle cx="468.0" cy="321.2" r="4.4" />
<circle cx="416.0" cy="308.2" r="4.4" />
<circle cx="429.0" cy="308.2" r="4.4" />
<circle cx="442.0" cy="308.2" r="4.4" />
<circle cx="455.0" cy="308.2" r="4.4" />
<circle cx="468.0" cy="308.2" r="4.4" />
<circle cx="416.0" cy="295.2" r="4.4" />
<circle cx="429.0" cy="295.2" r="4.4" />
<circle cx="442.0" cy="295.2" r="4.4" />
<circle cx="455.0" cy="295.2" r="4.4" />
<circle cx="468.0" cy="295.2" r="4.4" />
<circle cx="416.0" cy="282.2" r="4.4" />
<circle cx="429.0" cy="282.2" r="4.4" />
<circle cx="442.0" cy="282.2" r="4.4" />
<circle cx="455.0" cy="282.2" r="4.4" />
<circle cx="468.0" cy="282.2" r="4.4" />
<circle cx="416.0" cy="269.2" r="4.4" />
<circle cx="429.0" cy="269.2" r="4.4" />
<circle cx="442.0" cy="269.2" r="4.4" />
<circle cx="455.0" cy="269.2" r="4.4" />
<circle cx="468.0" cy="269.2" r="4.4" />
<circle cx="416.0" cy="256.2" r="4.4" />
<circle cx="429.0" cy="256.2" r="4.4" />
<circle cx="442.0" cy="256.2" r="4.4" />
<circle cx="455.0" cy="256.2" r="4.4" />
<circle cx="468.0" cy="256.2" r="4.4" />
<circle cx="416.0" cy="243.2" r="4.4" />
<circle cx="429.0" cy="243.2" r="4.4" />
<circle cx="442.0" cy="243.2" r="4.4" />
<circle cx="455.0" cy="243.2" r="4.4" />
<circle cx="468.0" cy="243.2" r="4.4" />
<circle cx="416.0" cy="230.2" r="4.4" />
<circle cx="429.0" cy="230.2" r="4.4" />
<circle cx="442.0" cy="230.2" r="4.4" />
<circle cx="455.0" cy="230.2" r="4.4" />
<circle cx="429.0" cy="217.2" r="4.4" />
<circle cx="442.0" cy="217.2" r="4.4" />
<circle cx="455.0" cy="217.2" r="4.4" />
<circle cx="416.0" cy="191.2" r="4.4" />
<circle cx="429.0" cy="191.2" r="4.4" />
<circle cx="442.0" cy="191.2" r="4.4" />
<circle cx="416.0" cy="178.2" r="4.4" />
<circle cx="429.0" cy="178.2" r="4.4" />
<circle cx="442.0" cy="178.2" r="4.4" />
<circle cx="455.0" cy="178.2" r="4.4" />
<circle cx="416.0" cy="165.2" r="4.4" />
<circle cx="429.0" cy="165.2" r="4.4" />
<circle cx="442.0" cy="165.2" r="4.4" />
<circle cx="455.0" cy="165.2" r="4.4" />
<circle cx="507.0" cy="165.2" r="4.4" />
<circle cx="520.0" cy="165.2" r="4.4" />
<circle cx="533.0" cy="165.2" r="4.4" />
<circle cx="416.0" cy="152.2" r="4.4" />
<circle cx="429.0" cy="152.2" r="4.4" />
<circle cx="442.0" cy="152.2" r="4.4" />
<circle cx="455.0" cy="152.2" r="4.4" />
<circle cx="481.0" cy="152.2" r="4.4" />
<circle cx="494.0" cy="152.2" r="4.4" />
<circle cx="507.0" cy="152.2" r="4.4" />
<circle cx="520.0" cy="152.2" r="4.4" />
<circle cx="533.0" cy="152.2" r="4.4" />
<circle cx="546.0" cy="152.2" r="4.4" />
<circle cx="416.0" cy="139.2" r="4.4" />
<circle cx="429.0" cy="139.2" r="4.4" />
<circle cx="442.0" cy="139.2" r="4.4" />
<circle cx="455.0" cy="139.2" r="4.4" />
<circle cx="468.0" cy="139.2" r="4.4" />
<circle cx="481.0" cy="139.2" r="4.4" />
<circle cx="494.0" cy="139.2" r="4.4" />
<circle cx="507.0" cy="139.2" r="4.4" />
<circle cx="520.0" cy="139.2" r="4.4" />
<circle cx="533.0" cy="139.2" r="4.4" />
<circle cx="546.0" cy="139.2" r="4.4" />
<circle cx="429.0" cy="126.2" r="4.4" />
<circle cx="442.0" cy="126.2" r="4.4" />
<circle cx="455.0" cy="126.2" r="4.4" />
<circle cx="468.0" cy="126.2" r="4.4" />
<circle cx="481.0" cy="126.2" r="4.4" />
<circle cx="494.0" cy="126.2" r="4.4" />
<circle cx="507.0" cy="126.2" r="4.4" />
<circle cx="520.0" cy="126.2" r="4.4" />
<circle cx="533.0" cy="126.2" r="4.4" />
<circle cx="546.0" cy="126.2" r="4.4" />
<circle cx="559.0" cy="126.2" r="4.4" />
<circle cx="572.0" cy="126.2" r="4.4" />
<circle cx="585.0" cy="126.2" r="4.4" />
<circle cx="468.0" cy="113.2" r="4.4" />
<circle cx="481.0" cy="113.2" r="4.4" />
<circle cx="494.0" cy="113.2" r="4.4" />
<circle cx="507.0" cy="113.2" r="4.4" />
<circle cx="520.0" cy="113.2" r="4.4" />
<circle cx="533.0" cy="113.2" r="4.4" />
<circle cx="546.0" cy="113.2" r="4.4" />
<circle cx="559.0" cy="113.2" r="4.4" />
<circle cx="572.0" cy="113.2" r="4.4" />
<circle cx="585.0" cy="113.2" r="4.4" />
<circle cx="598.0" cy="113.2" r="4.4" />
<circle cx="611.0" cy="113.2" r="4.4" />
<circle cx="468.0" cy="100.2" r="4.4" />
<circle cx="481.0" cy="100.2" r="4.4" />
<circle cx="494.0" cy="100.2" r="4.4" />
<circle cx="507.0" cy="100.2" r="4.4" />
<circle cx="520.0" cy="100.2" r="4.4" />
<circle cx="533.0" cy="100.2" r="4.4" />
<circle cx="546.0" cy="100.2" r="4.4" />
<circle cx="559.0" cy="100.2" r="4.4" />
<circle cx="572.0" cy="100.2" r="4.4" />
<circle cx="585.0" cy="100.2" r="4.4" />
<circle cx="598.0" cy="100.2" r="4.4" />
<circle cx="611.0" cy="100.2" r="4.4" />
<circle cx="468.0" cy="87.2" r="4.4" />
<circle cx="481.0" cy="87.2" r="4.4" />
<circle cx="494.0" cy="87.2" r="4.4" />
<circle cx="507.0" cy="87.2" r="4.4" />
<circle cx="520.0" cy="87.2" r="4.4" />
<circle cx="533.0" cy="87.2" r="4.4" />
<circle cx="546.0" cy="87.2" r="4.4" />
<circle cx="559.0" cy="87.2" r="4.4" />
<circle cx="572.0" cy="87.2" r="4.4" />
<circle cx="585.0" cy="87.2" r="4.4" />
<circle cx="598.0" cy="87.2" r="4.4" />
<circle cx="468.0" cy="74.2" r="4.4" />
<circle cx="481.0" cy="74.2" r="4.4" />
<circle cx="494.0" cy="74.2" r="4.4" />
<circle cx="507.0" cy="74.2" r="4.4" />
<circle cx="520.0" cy="74.2" r="4.4" />
<circle cx="533.0" cy="74.2" r="4.4" />
<circle cx="546.0" cy="74.2" r="4.4" />
<circle cx="598.0" cy="74.2" r="4.4" />
<circle cx="481.0" cy="61.2" r="4.4" />
<circle cx="494.0" cy="61.2" r="4.4" />
<circle cx="507.0" cy="61.2" r="4.4" />
<circle cx="520.0" cy="61.2" r="4.4" />
<circle cx="481.0" cy="48.2" r="4.4" />
<circle cx="494.0" cy="48.2" r="4.4" />
<circle cx="507.0" cy="48.2" r="4.4" />
<circle cx="481.0" cy="35.2" r="4.4" />
<circle cx="494.0" cy="35.2" r="4.4" />
<circle cx="481.0" cy="22.2" r="4.4" />
</g>
<g>
<circle cx="373.4" cy="373.8" r="7" fill="#055448"/>
<circle cx="373.4" cy="373.8" r="26" stroke="#055448" stroke-opacity="0.35" stroke-width="1.5"/>
<circle cx="373.4" cy="373.8" r="48" stroke="#055448" stroke-opacity="0.18" stroke-width="1.5"/>
</g>
</svg>